
<svg width="25px" height="25px" viewBox="0 0 25 25" version="1.1" xmlns="http://www.w3.org/2000/svg" xmlns:xlink="http://www.w3.org/1999/xlink">
    <g id="Home" stroke="none" stroke-width="1" fill="none" fill-rule="evenodd">
        <g id="Desktop_home_new" transform="translate(-250.000000, -2258.000000)" fill="#FC8353" fill-rule="nonzero">
            <g id="Group-4" transform="translate(249.000000, 2148.000000)">
                <path d="M15.9525954,120.4125 C17.0125954,121.4525 17.5925954,122.8425 17.5925954,124.3125 C17.5925954,125.1025 17.4125954,125.8525 17.1025954,126.5525 L9.74259537,119.2925 C11.7825954,118.3925 14.2725954,118.7525 15.9525954,120.4125 Z M1.37259537,124.3625 C1.11259537,124.4325 0.952595368,124.6925 1.01259537,124.9525 C1.19259537,125.7725 1.51259537,126.7725 2.03259537,127.8425 L2.53259537,127.5925 C2.70259537,127.5025 2.91259537,127.3825 3.14259537,127.2625 C4.14259537,126.7225 5.38259537,126.0525 6.22259537,125.2225 L6.92259537,125.9325 C5.97259537,126.8625 4.66259537,127.5725 3.61259537,128.1325 C3.39259537,128.2525 3.18259537,128.3625 3.00259537,128.4625 L2.50259537,128.7125 C3.00259537,129.5725 3.64259537,130.4425 4.47259537,131.2925 C4.49259537,131.3125 4.52259537,131.3325 4.54259537,131.3625 L4.78259537,131.0625 C4.86259537,130.9625 6.71259537,128.7625 8.35259537,127.3225 L9.01259537,128.0725 C7.42259537,129.4625 5.57259537,131.6725 5.55259537,131.6925 L5.27259537,132.0425 C6.06259537,132.7325 6.88259537,133.2725 7.66259537,133.6925 L7.86259537,133.2425 C7.99259537,133.0125 8.10259537,132.7825 8.23259537,132.5425 C8.68259537,131.6725 9.23259537,130.5825 10.0225954,129.8125 L10.7225954,130.5225 C10.0425954,131.1925 9.53259537,132.1925 9.12259537,133.0025 C8.99259537,133.2625 8.87259537,133.4925 8.76259537,133.6925 L8.56259537,134.1425 C9.43259537,134.5325 10.2425954,134.7925 10.9325954,134.9625 C10.9725954,134.9725 11.0125954,134.9725 11.0525954,134.9725 C11.1725954,134.9725 11.2825954,134.9325 11.3825954,134.8525 C11.9825954,134.3325 12.4525954,133.4625 13.0025954,132.4525 C13.5125954,131.5025 14.1225954,130.3825 14.9825954,129.2925 L6.96259537,121.3825 C4.21259537,123.6025 1.40259537,124.3625 1.37259537,124.3625 Z M25.5925954,110.4125 C25.0525954,109.8625 24.1825954,109.8625 23.6325954,110.4125 L15.4025954,118.7425 C15.8525954,119.0125 16.2725954,119.3225 16.6525954,119.7025 C16.9525954,119.9925 17.2125954,120.3125 17.4425954,120.6525 L25.5825954,112.4025 C26.1225954,111.8525 26.1225954,110.9625 25.5925954,110.4125 Z M8.06259537,120.4125 C7.94259537,120.5325 7.82259537,120.6325 7.70259537,120.7525 L15.6325954,128.5725 C15.7425954,128.4525 15.8325954,128.3325 15.9525954,128.2125 C16.1925954,127.9825 16.3925954,127.7225 16.5825954,127.4525 L8.82259537,119.8025 C8.55259537,119.9825 8.29259537,120.1825 8.06259537,120.4125 Z" id="Broom"></path>
            </g>
        </g>
    </g>
</svg>
