<svg xmlns="http://www.w3.org/2000/svg" width="190" height="191" fill="none" viewBox="0 0 190 191">
  <path fill="#fff" d="M163.247 93.105c-3.428-.898-3.468-.405-6.896-1.3-3.429-.899-3.365-1.148-6.795-2.045-2.287-.599-4.574-1.2-6.86-1.804-3.432-.898-3.435-.887-6.868-1.785-3.431-.897-3.45-.827-6.881-1.726-3.356-.879-3.521-.631-6.734-1.459.223-.322.45-.644.672-.968.982-1.454 1.848-2.978 2.687-4.452.675-1.19 1.35-2.377 2.087-3.53.416-.646.638-.963.858-1.278.236-.335.471-.668.911-1.358.442-.691.643-1.05.843-1.409.188-.33.372-.665.781-1.306.503-.787 1.077-1.513 1.685-2.285.688-.87 1.398-1.772 2.012-2.78l1.317-2.183c1.213-2.018 2.422-4.032 3.694-6.017.423-.662.64-.988.856-1.315.223-.334.443-.669.875-1.341.419-.654.639-.977.857-1.297.229-.337.458-.673.897-1.36l3.427-5.366c.167-.26.673-1.052.014-1.65-.688-.62-1.311-.125-2.552.856-.502.397-1.06.843-1.511 1.134l-2.666 1.71c-.651.42-.983.613-1.318.809-.349.202-.704.406-1.382.843-1.78 1.142-3.531 2.332-5.28 3.522-1.744 1.184-3.49 2.37-5.265 3.511-.6.386-.909.519-1.267.673a9.19 9.19 0 0 0-1.542.82c-.709.457-1.038.72-1.37.987-.291.233-.582.466-1.204.867a414.054 414.054 0 0 1-6.726 4.207c-2.249 1.39-4.496 2.775-6.703 4.194l-.555.358c-.853-3.272-.847-3.35-1.729-6.732-.896-3.437-.973-3.418-1.871-6.855-.896-3.437-1.124-3.377-2.02-6.814-.896-3.438-.76-3.473-1.658-6.91-.896-3.439-.918-3.432-1.816-6.871-.898-3.444-.704-4.348-1.349-6.86-.644-2.512-1.436-7.085-2.164-7.085-.728 0-1.318 3.566-2.215 7.001-.896 3.434-.404 3.474-1.298 6.908-.896 3.436-1.145 3.372-2.041 6.807-.598 2.292-1.198 4.583-1.8 6.875-.897 3.437-.886 3.44-1.782 6.877-.897 3.437-.826 3.456-1.724 6.894-.877 3.361-.628 3.527-1.456 6.747-.117-.07-.206-.115-.352-.209-.638-.41-.937-.642-1.238-.877-.335-.26-.67-.52-1.38-.976-2.704-1.738-5.438-3.43-8.171-5.12-2.726-1.687-5.452-3.373-8.147-5.105-.636-.408-.933-.644-1.233-.879-.335-.263-.67-.528-1.384-.987-.699-.45-1.066-.652-1.43-.855-.34-.19-.678-.376-1.33-.796-.88-.566-1.726-1.187-2.574-1.81-.882-.65-1.769-1.297-2.69-1.89-.74-.475-1.17-.664-1.552-.833-.339-.15-.677-.297-1.293-.694-.67-.429-.994-.654-1.323-.88a41.86 41.86 0 0 0-1.362-.906 70.643 70.643 0 0 1-2.737-1.868.958.958 0 0 0-1.405 1.229c.035.064.848 1.588 1.72 2.952a303.497 303.497 0 0 0 3.531 5.356 333.33 333.33 0 0 1 3.502 5.317c.44.689.672 1.026.901 1.364.221.322.44.645.863 1.302.44.69.675 1.028.91 1.365.223.32.448.641.868 1.298 1.43 2.24 2.809 4.51 4.184 6.783 1.386 2.285 2.771 4.571 4.208 6.816.46.72.73 1.052.998 1.386.236.293.472.585.874 1.21.419.657.62.994.823 1.331.21.35.418.7.858 1.388.131.204.258.411.39.615a49.96 49.96 0 0 0-.331.084c-3.431.898-3.396 1.037-6.827 1.935-3.431.898-3.4 1.022-6.832 1.92-3.431.897-3.505.616-6.934 1.514-3.432.898-3.374 1.123-6.805 2.02-3.433.899-3.436.884-6.869 1.784-3.437.899-13.856 2.523-13.856 3.474 0 .95 17.21 4.532 20.64 5.43 3.431.898 3.442.856 6.875 1.754s3.465.769 6.898 1.667 3.449.831 6.881 1.73c3.431.898 3.38 1.095 6.81 1.993l.134.036-.083.128c-.608.932-1.214 1.86-1.812 2.796-.42.657-.65.974-.882 1.292-.245.34-.492.679-.944 1.386a13.672 13.672 0 0 0-.848 1.498c-.172.341-.342.685-.75 1.322-.42.657-.653.972-.886 1.288-.248.339-.497.678-.949 1.385-.404.631-.644.922-.885 1.214-.279.337-.554.673-1.023 1.405-1.17 1.828-2.309 3.677-3.449 5.526a367.686 367.686 0 0 1-3.407 5.464c-.575.898-1.159 1.789-1.744 2.68-.6.916-1.203 1.833-1.791 2.757-.435.677-.659 1.007-.885 1.341-.23.339-.462.679-.903 1.371a40.79 40.79 0 0 1-.882 1.332c-.234.34-.468.684-.913 1.383-.897 1.397-1.695 2.864-1.695 2.864a.956.956 0 0 0 .84 1.418c.19 0 .381-.056.547-.172.004-.003 1.322-.92 2.666-1.781.685-.442 1.024-.675 1.361-.903.33-.226.66-.451 1.331-.883.662-.424 1.002-.628 1.339-.832.356-.214.707-.426 1.403-.872 1.802-1.159 3.62-2.296 5.435-3.434a616.737 616.737 0 0 0 5.51-3.481c.677-.435 1.016-.662 1.352-.883.337-.225.67-.448 1.357-.887l2.729-1.747c.65-.418.988-.601 1.329-.786.372-.201.744-.401 1.453-.856.986-.631 1.879-1.372 2.741-2.085.933-.771 1.814-1.5 2.803-2.107 1.2-.734 2.434-1.404 3.672-2.072a169.27 169.27 0 0 0 1.811-.996c.831 3.156.993 3.242 1.864 6.582.896 3.437 1.02 3.405 1.916 6.844.896 3.437.615 3.51 1.512 6.947.896 3.437 1.119 3.379 2.017 6.816.896 3.439.881 3.442 1.78 6.879.897 3.444 2.518 13.881 3.466 13.881.947 0 4.524-17.241 5.421-20.676.896-3.437.854-3.449 1.75-6.887.897-3.438.768-3.471 1.665-6.91.896-3.439.829-3.455 1.727-6.894.878-3.368 1.09-3.405 1.941-6.64.595.402 1.185.81 1.814 1.176 4.622 2.689 9.031 5.484 12.355 7.617 1.645 1.056 3.322 2.06 5.003 3.064a197.9 197.9 0 0 1 4.195 2.554c1.32.83 2.625 1.693 3.93 2.557 1.033.684 2.067 1.367 3.106 2.035.699.45 1.066.65 1.43.848.34.185.677.371 1.328.789.611.393.866.62 1.161.883.311.279.662.594 1.401 1.068a50.563 50.563 0 0 0 2.711 1.613.96.96 0 0 0 1.233-1.407c-.005-.01-.858-1.183-1.706-2.504l-1.725-2.707a11.388 11.388 0 0 1-.736-1.306c-.192-.385-.383-.771-.845-1.49-.468-.731-.752-1.063-1.036-1.397-.24-.283-.484-.566-.88-1.186-.856-1.341-1.68-2.701-2.504-4.06-.842-1.388-1.681-2.776-2.556-4.142a18.74 18.74 0 0 0-.956-1.378c-.229-.309-.461-.617-.875-1.263-.443-.694-.677-1.029-.912-1.37-.225-.323-.449-.644-.871-1.306a11.144 11.144 0 0 1-.734-1.306c-.19-.385-.379-.771-.841-1.492a30.673 30.673 0 0 1-.808-1.331 28.752 28.752 0 0 0-.856-1.41c-.468-.73-.75-1.062-1.031-1.396a9.702 9.702 0 0 1-.885-1.198c-1.198-1.873-2.358-3.77-3.522-5.664 2.826-.737 3.073-.777 6.285-1.617 3.431-.898 3.412-.975 6.843-1.874 3.431-.898 3.372-1.126 6.803-2.024 3.431-.898 3.466-.763 6.897-1.661 3.432-.898 3.427-.92 6.858-1.82 3.438-.9 4.34-.705 6.848-1.35 2.508-.646 7.072-1.44 7.072-2.169 0-.729-3.559-1.32-6.989-2.218Zm-54.316-24.272a441.682 441.682 0 0 1 6.674-4.176 463.413 463.413 0 0 0 6.757-4.226c.707-.454 1.037-.72 1.369-.984.29-.235.582-.47 1.204-.87a7.37 7.37 0 0 1 1.267-.672c.38-.163.808-.349 1.541-.82a240.285 240.285 0 0 0 5.307-3.538 244.081 244.081 0 0 1 5.24-3.493c.644-.413.978-.607 1.308-.798.353-.206.707-.41 1.393-.853l1.812-1.161-1.169 1.829c-.425.663-.644.985-.866 1.31-.226.331-.453.667-.888 1.343-.423.662-.64.988-.856 1.316a81.38 81.38 0 0 0-.876 1.343c-1.281 2-2.499 4.03-3.723 6.06l-1.313 2.176c-.551.906-1.194 1.723-1.877 2.587-.609.775-1.241 1.574-1.796 2.442-.439.687-.64 1.045-.84 1.403-.188.334-.374.667-.786 1.311-.417.654-.639.969-.864 1.287-.234.33-.468.665-.904 1.349-.755 1.182-1.448 2.398-2.139 3.615-.819 1.442-1.666 2.935-2.607 4.324-.343.504-.694 1.004-1.042 1.505-1.785-.541-2.336-.86-5.041-1.568-2.55-.668-3.233-.751-4.82-1.118-.442-1.824-.521-2.434-1.23-5.152-.702-2.692-.854-3.296-1.314-5.076l1.079-.695Zm-40.257 12.11c-.425-.663-.627-1-.83-1.34a44.75 44.75 0 0 0-.852-1.382c-.459-.716-.728-1.047-.998-1.381a11.885 11.885 0 0 1-.875-1.215c-1.429-2.232-2.804-4.505-4.181-6.776-1.386-2.285-2.771-4.573-4.21-6.821a35.554 35.554 0 0 0-.91-1.362c-.224-.323-.447-.643-.87-1.304-.435-.68-.665-1.016-.892-1.35-.223-.326-.443-.65-.87-1.315-1.147-1.796-2.335-3.572-3.522-5.349a333.91 333.91 0 0 1-2.972-4.494c.215.145.383.26.551.376.34.235.678.47 1.374.914.74.476 1.17.665 1.552.834.339.15.677.297 1.293.694.888.571 1.74 1.196 2.59 1.821.88.646 1.758 1.291 2.673 1.878.704.45 1.07.655 1.437.857.338.19.677.376 1.326.792.637.408.933.644 1.233.879.335.263.67.528 1.384.987 2.703 1.738 5.437 3.43 8.17 5.12 2.726 1.687 5.452 3.374 8.147 5.105.638.408.936.643 1.238.877.335.26.67.52 1.38.977.351.225.622.382.856.509-.548 1.821-.865 2.36-1.577 5.093-.712 2.729-.763 3.34-1.201 5.186-1.785.476-2.378.65-5.073 1.354-2.43.636-3.183.712-4.624 1.019-.25-.394-.496-.79-.747-1.183ZM79.46 122.31c-1.268.686-2.535 1.373-3.761 2.126-1.104.677-2.078 1.484-3.023 2.263-.856.71-1.666 1.382-2.554 1.95-.65.416-.99.599-1.328.783-.373.2-.745.401-1.455.857l-2.73 1.748a90.35 90.35 0 0 0-1.381.902c-.329.219-.663.44-1.326.868-1.822 1.169-3.658 2.319-5.492 3.469-1.821 1.142-3.644 2.284-5.453 3.445-.675.432-1.013.638-1.358.845-.348.21-.699.421-1.383.859-.698.448-1.038.68-1.381.914l-.442.302c.108-.162.203-.302.3-.44.233-.34.467-.684.913-1.383.428-.668.653-.999.876-1.328.234-.342.465-.684.912-1.385.585-.915 1.183-1.826 1.78-2.737.588-.897 1.177-1.794 1.755-2.699a377.58 377.58 0 0 0 3.427-5.492c1.133-1.839 2.264-3.676 3.43-5.498.405-.633.647-.925.886-1.217.277-.336.555-.673 1.021-1.401.419-.653.651-.968.88-1.281.25-.341.5-.68.955-1.393a13.59 13.59 0 0 0 .848-1.499c.171-.34.341-.684.75-1.321.42-.657.651-.974.882-1.292.245-.34.492-.679.944-1.386.595-.931 1.2-1.857 1.802-2.782.143-.218.283-.437.425-.655 1.568.435 2.216.652 4.764 1.319 2.778.727 3.372.722 5.31 1.167.436 1.639.617 2.273 1.296 4.87.72 2.758.723 3.365 1.157 5.262-.747.424-1.502.835-2.244 1.235l-.002.005Zm46.112-6.375c.239.284.483.572.881 1.193.418.657.614.995.808 1.332.205.358.412.716.856 1.408.402.63.569.969.734 1.306.189.386.379.771.84 1.492.443.694.677 1.03.913 1.37.224.323.449.645.87 1.306.452.707.704 1.044.956 1.378.229.309.462.617.875 1.263.868 1.354 1.698 2.729 2.53 4.102.833 1.373 1.665 2.748 2.53 4.1.469.733.754 1.067 1.038 1.399.24.283.482.564.879 1.186.405.631.574.97.742 1.309.189.384.38.767.84 1.485l.891 1.401a9.357 9.357 0 0 0-1.319-.996 20.221 20.221 0 0 0-1.443-.856c-.335-.185-.674-.369-1.316-.781-1.033-.663-2.059-1.341-3.084-2.018-1.316-.871-2.634-1.745-3.968-2.583a211.835 211.835 0 0 0-4.231-2.573c-1.661-.993-3.321-1.987-4.951-3.033-3.34-2.144-7.772-4.955-12.428-7.661a33.374 33.374 0 0 1-2.254-1.463c.492-1.797.697-2.379 1.403-5.087.681-2.613.713-3.283 1.082-4.958 1.671-.402 2.32-.496 4.93-1.179 2.901-.76 3.37-.875 5.511-1.433 1.27 2.071 2.541 4.144 3.851 6.19a11.26 11.26 0 0 0 1.034 1.404v-.003Zm54.435-20.7c0-.739.677-.885 1.206-.885 0 0 1.204-.14 2.423-.074 1.218.066 3.788 0 3.788 0 .529 0 .957.429.957.96 0 .53-.428.958-.957.958h-2.589s-1.159-.063-1.631 0c-.471.063-1.432-.01-1.432-.01-.529 0-1.765-.21-1.765-.949Zm-178.911 0c0-.739.676-.885 1.205-.885 0 0 1.204-.14 2.423-.074.582.03 1.281.114 2.052.106.298-.124 1.737-.106 1.737-.106.529 0 1.209.317.957.96-.252.641-.428.958-.957.958 0 0-.302.013-.725-.023-.755-.01-1.865.023-1.865.023s-1.159-.063-1.63 0c-.472.063-1.432-.01-1.432-.01-.53 0-1.767-.21-1.767-.949h.002Z"/>
  <path fill="#fff" d="M188.397 80.38c-.747-4.756-1.924-9.63-3.498-14.488-1.339-4.132-3.147-8.35-5.862-13.68-2.501-4.91-5.547-9.292-7.92-12.56-2.859-3.936-5.816-8.008-9.356-11.55-2.759-2.765-5.94-5.01-9.017-7.182-.905-.64-1.81-1.277-2.703-1.929l-1.989-1.463c-3.24-2.398-6.593-4.876-10.333-6.788-4.304-2.2-8.811-3.732-13.834-5.366-.829-.27-1.658-.548-2.49-.824-3.779-1.264-7.685-2.57-11.81-3.22C103.814.424 99.097 0 94.738 0c-5.545 0-10.845.723-14.846 1.35-4.022.635-7.824 1.919-11.499 3.16-.93.315-1.857.628-2.785.928-1.044.34-2.09.664-3.138.988-3.623 1.123-7.37 2.281-10.845 4.057-4.074 2.085-7.763 4.785-11.334 7.395l-1.087.794c-3.553 2.589-7.686 5.738-11.43 9.487-3.41 3.416-6.653 7.23-9.633 11.333-2.585 3.558-4.575 7.491-6.499 11.298l-.82 1.619a93.18 93.18 0 0 0-5.68 13.67c-1.622 5.006-2.769 9.715-3.504 14.39C.826 85.652.432 90.484.432 95.24c0 1.385-.039 2.769-.077 4.147-.098 3.54-.2 7.202.359 10.771a95.319 95.319 0 0 0 3.486 14.55c1.228 3.789 3.075 7.295 4.863 10.684.497.943.99 1.883 1.471 2.825l.63 1.239c2.005 3.948 4.076 8.03 6.743 11.699 3.418 4.701 6.458 8.342 9.57 11.458 2.891 2.898 6.234 5.289 9.468 7.604.75.536 1.497 1.071 2.24 1.612 3.681 2.683 7.832 5.195 12.689 7.676 3.633 1.858 8.462 4.207 13.62 5.885 5.065 1.648 9.785 2.804 14.429 3.537a95.905 95.905 0 0 0 14.813 1.161c4.756 0 9.352-.726 13.8-1.431l.946-.148c4.32-.682 8.74-1.795 14.332-3.615 4.998-1.626 9.47-3.461 13.667-5.611 1.023-.522 2.054-1.026 3.084-1.532 3.352-1.643 6.819-3.342 9.939-5.618 4.728-3.445 8.365-6.484 11.44-9.568 2.584-2.589 4.643-5.602 6.634-8.517.773-1.129 1.543-2.257 2.343-3.359 3.203-4.407 5.762-8.519 7.826-12.568.391-.768.789-1.534 1.19-2.3 1.847-3.556 3.758-7.231 5.049-11.208 1.661-5.12 2.82-9.861 3.545-14.494.814-5.194.925-10.436.925-14.88 0-5.444-.348-10.304-1.06-14.86h.001Zm-3.649 29.143c-.692 4.432-1.807 8.98-3.404 13.907-.625 1.927-1.431 3.814-2.31 5.668a3.28 3.28 0 0 0-.35-.121c-.458-.122-1.507-.625-1.507-.625s-1.037-.396-1.731-.693a6.209 6.209 0 0 0-.661-.298c-.489-.202-.773.023-1.251.521-.477.498.031 1.05.52 1.253 0 0 1.323.567 1.645.567.715.289 1.329.632 1.855.883.207.1.414.188.616.273a211.066 211.066 0 0 1-1.631 3.191c-.404.776-.806 1.552-1.202 2.329-1.971 3.87-4.429 7.813-7.512 12.056-.823 1.131-1.613 2.289-2.407 3.449-1.791 2.622-3.511 5.097-5.547 7.28a42.182 42.182 0 0 1-1.596-1.633c-.816-.911-1.767-1.664-1.767-1.664-.373-.374-.955-.752-1.476-.228-.521.522.205 1.548.58 1.922 0 0 .629.733 1.005 1.022.377.289 1.153 1.155 1.153 1.155l.776.777c-2.793 2.718-6.073 5.443-10.295 8.521-2.849 2.08-6.016 3.63-9.368 5.274-1.049.514-2.101 1.028-3.141 1.56-.68.348-1.379.676-2.075 1.007-.22-.474-.428-.941-.569-1.295-.455-1.135-1.089-2.17-1.089-2.17-.223-.48-.64-1.034-1.308-.722-.669.311-.337 1.524-.114 2.006 0 0 .34.902.595 1.304.255.401.688 1.481.688 1.481l.088.189a93.623 93.623 0 0 1-9.32 3.577c-5.396 1.756-9.633 2.827-13.746 3.473l-.949.149c-3.984.633-8.1 1.258-12.227 1.349a3.562 3.562 0 0 0-.023-.374c-.062-.472 0-1.633 0-1.633s-.032-1.112-.022-1.868c.035-.423.022-.725.022-.725 0-.53-.316-.706-.957-.959-.641-.252-.957.429-.957.959 0 0-.018 1.441.106 1.74.006.772-.076 1.473-.106 2.056-.014.279-.018.557-.016.82a91.58 91.58 0 0 1-13.24-1.097c-4.442-.698-8.968-1.81-13.84-3.393-1.9-.619-3.714-1.337-5.471-2.08.243-.604.505-1.228.707-1.656.522-1.105.85-2.275.85-2.275.2-.49.322-1.172-.36-1.452-.683-.281-1.346.787-1.547 1.279 0 0-.431.862-.552 1.323-.12.461-.618 1.512-.618 1.512l-.217.53a127.802 127.802 0 0 1-5.854-2.832c-4.677-2.39-8.66-4.798-12.174-7.361-.752-.548-1.51-1.091-2.269-1.633-2.842-2.034-5.75-4.143-8.271-6.529.203-.193.423-.412.553-.583.288-.378 1.153-1.155 1.153-1.155s.763-.808 1.303-1.337c.324-.273.528-.496.528-.496.373-.374.275-.723 0-1.355-.276-.633-.98-.375-1.354 0 0 0-1.029 1.007-1.152 1.305-.54.551-1.094.988-1.527 1.378-.33.299-.623.601-.885.882-2.741-2.823-5.466-6.108-8.517-10.306-2.487-3.423-4.49-7.366-6.426-11.179l-.632-1.247a207.24 207.24 0 0 0-1.496-2.87 275.83 275.83 0 0 1-1.15-2.199 39.104 39.104 0 0 1 1.862-.755c1.15-.412 2.205-1.01 2.205-1.01.487-.205 1.055-.602.768-1.283-.287-.681-1.509-.394-1.996-.188 0 0-.914.307-1.323.546-.41.241-1.502.633-1.502.633l-.862.363c-.998-2.021-1.928-4.078-2.61-6.185a91.157 91.157 0 0 1-3.343-13.963c-.505-3.22-.413-6.546-.316-10.067.039-1.415.079-2.835.079-4.255 0-4.556.38-9.193 1.16-14.174.702-4.473 1.801-8.99 3.363-13.803a87.745 87.745 0 0 1 2.1-5.742c.496.205.982.414 1.333.583 1.101.526 2.267.859 2.267.859.489.202 1.169.328 1.451-.357.282-.682-.782-1.35-1.271-1.553 0 0-.86-.435-1.32-.557-.459-.122-1.507-.625-1.507-.625l-.23-.095a92.354 92.354 0 0 1 2.622-5.621l.826-1.632c1.941-3.839 3.776-7.464 6.177-10.773a92.228 92.228 0 0 1 8.567-10.17c.108.105.213.201.303.27.377.29 1.153 1.155 1.153 1.155s.808.765 1.334 1.306c.273.324.495.528.495.528.374.375.722.276 1.354 0 .631-.276.375-.981 0-1.355 0 0-1.006-1.032-1.304-1.155-.55-.541-.986-1.096-1.375-1.53a12.7 12.7 0 0 0-.573-.593c3.373-3.266 7.055-6.091 10.265-8.43l1.092-.798c3.448-2.523 7.014-5.13 10.817-7.077a34.29 34.29 0 0 1 2.082-.962c.093.206.19.412.282.553.255.401.688 1.48.688 1.48s.497.997.806 1.686c.146.398.286.666.286.666.222.48.583.508 1.27.466.689-.042.689-.793.466-1.274 0 0-.592-1.314-.829-1.532-.332-.697-.552-1.367-.77-1.908-.12-.302-.253-.591-.384-.861 2.034-.771 4.144-1.442 6.338-2.12a255.7 255.7 0 0 0 3.187-1.004c.943-.305 1.882-.623 2.825-.943 3.524-1.192 7.172-2.422 10.87-3.005 5.306-.835 9.46-1.238 13.313-1.294a43.19 43.19 0 0 1-.024 2.34 16.525 16.525 0 0 0 .074 2.427c0 .53.146 1.207.884 1.207.737 0 .947-1.24.947-1.77 0 0 .072-.962.01-1.434-.063-.472 0-1.633 0-1.633V3.86c3.9.056 8.147.452 13.3 1.263 3.809.599 7.563 1.855 11.193 3.066.841.282 1.68.562 2.52.835 1.915.623 3.731 1.237 5.501 1.871-.016.05-.04.108-.051.15-.12.46-.619 1.51-.619 1.51s-.391 1.042-.686 1.739a6.015 6.015 0 0 0-.295.662c-.201.49.024.774.522 1.25.499.478 1.049-.033 1.249-.523 0 0 .562-1.327.562-1.651.285-.718.627-1.335.877-1.862.096-.204.184-.407.266-.608 2.062.785 4.044 1.622 5.95 2.597 3.46 1.77 6.538 4.047 9.8 6.458l2.009 1.478c.91.663 1.831 1.315 2.753 1.964 2.807 1.982 5.461 3.882 7.825 6.12a37.181 37.181 0 0 1-1.447 1.411 16.376 16.376 0 0 0-1.661 1.77c-.374.375-.751.958-.228 1.48s1.546-.206 1.919-.582c0 0 .731-.63 1.02-1.007.288-.377 1.153-1.155 1.153-1.155l.58-.583c3.05 3.182 5.732 6.836 8.318 10.399 2.291 3.152 5.227 7.372 7.607 12.044.938 1.84 1.728 3.508 2.459 5.112a3.521 3.521 0 0 0-.345.17c-.41.242-1.502.634-1.502.634s-1.012.459-1.711.745c-.402.13-.676.26-.676.26-.488.206-.528.565-.512 1.256.016.69.767.718 1.254.512 0 0 1.332-.543 1.56-.772.709-.305 1.384-.501 1.932-.699.279-.1.55-.212.805-.321a71.016 71.016 0 0 1 2.365 6.225c1.512 4.666 2.642 9.342 3.356 13.898.684 4.358 1.015 9.024 1.015 14.265 0 4.294-.105 9.351-.881 14.285l.005-.004Z"/>
</svg>
