<svg xmlns="http://www.w3.org/2000/svg" width="154" height="106" fill="none" viewBox="0 0 154 106">
  <path fill="#fff" d="M152.133 14.328c-2.384 0-2.384-.037-4.767-.037-2.384 0-2.384.096-4.768.096-2.385 0-2.385-.158-4.768-.158s-2.383.098-4.768.098-2.38.19-4.761.19c-2.38 0-2.382-.218-4.763-.218h-4.77c-2.384 0-2.381.164-4.763.164s-2.385-.083-4.769-.083c-2.385 0-2.384-.144-4.767-.144-2.383 0-2.386.229-4.77.229-2.385 0-2.385-.176-4.769-.176-2.383 0-2.384.23-4.77.23h-4.772c-2.387 0-2.387-.041-4.773-.041-2.386 0-2.383-.196-4.766-.196s-2.386.021-4.772.021-2.386-.047-4.774-.047c-2.387 0-2.387.278-4.773.278-2.386 0-2.39-.222-4.783-.222-2.392 0-2.46.664-4.737-.068-.178-1.594-.718-2.945-1.327-4.367-.624-1.457-1.257-2.936-2.26-4.136-1.003-1.2-2.24-2.262-3.554-3.132a16.259 16.259 0 0 0-4.287-2C39.11.166 37.52 0 35.904 0s-3.202.182-4.675.624c-1.524.458-2.916 1.237-4.216 2.097-1.314.87-2.552 1.87-3.559 3.077-1.003 1.2-1.707 2.62-2.33 4.077a16.69 16.69 0 0 0-1.233 4.637c-2.08.725-2.248-.2-4.45-.2-2.201 0-2.203-.013-4.406-.013H6.622c-2.207 0-2.206.09-4.413.09-.995 0-1.931.799-1.931 1.793 0 .994.936 1.726 1.93 1.726 2.204 0 2.204.078 4.405.078 2.202 0 2.203-.143 4.407-.143 2.203 0 2.206.134 4.413.134 2.207 0 2.344-.765 4.43-.04.177 1.594.473 3.21 1.081 4.631.624 1.456 1.45 2.85 2.453 4.05 1.007 1.205 2.285 2.186 3.598 3.056a16.076 16.076 0 0 0 4.257 1.991c1.473.444 3.035.817 4.652.817 1.616 0 3.22-.235 4.692-.677 1.525-.458 2.91-1.284 4.208-2.145 1.314-.872 2.448-1.965 3.455-3.17 1.003-1.2 1.938-2.484 2.562-3.94.61-1.422.983-2.918 1.16-4.514 2.27-.732 2.367.052 4.75.052 2.384 0 2.384-.232 4.768-.232 2.385 0 2.385.183 4.768.183s2.383-.15 4.768-.15 2.38.195 4.76.195c2.381 0 2.382-.241 4.764-.241s2.385.134 4.77.134c2.384 0 2.381.156 4.763.156s2.385-.12 4.77-.12c2.384 0 2.383.046 4.766.046s2.386.042 4.771.042c2.384 0 2.384-.082 4.767-.082 2.384 0 2.385.02 4.771.02l4.772.001c2.386 0 2.386-.099 4.773-.099 2.386 0 2.383.022 4.766.022s2.386.024 4.772.024 2.386-.12 4.774-.12c2.387 0 2.387.09 4.773.09 2.386 0 2.391.033 4.783.033 2.392 0 2.39.004 4.782.004.994 0 1.795-.818 1.795-1.812 0-.994-.801-1.853-1.795-1.853l.001-.001ZM35.906 28.691c-1.701 0-3.29-.37-4.772-.987-1.533-.638-2.954-1.484-4.11-2.64-1.158-1.158-1.944-2.602-2.583-4.135-.615-1.481-1.043-3.046-1.043-4.747s.16-3.377.777-4.858c.637-1.532 1.753-2.803 2.912-3.96a12.477 12.477 0 0 1 4.044-2.71c1.482-.615 3.074-1.113 4.775-1.113 1.702 0 3.326.423 4.807 1.039 1.535.636 2.813 1.672 3.97 2.829 1.157 1.157 2.27 2.403 2.909 3.936.615 1.48.787 3.136.787 4.837 0 1.701-.12 3.378-.737 4.86a12.865 12.865 0 0 1-2.759 4.115c-1.158 1.157-2.6 2.08-4.132 2.718-1.482.615-3.143.816-4.845.816Zm116.227 22.223c-1.279 0-1.279-.047-2.557-.047s-1.281-.122-2.561-.122c-1.279 0-1.282.03-2.563.03-1.281 0-1.279-.09-2.56-.09-1.281 0-1.284-.023-2.567-.023-1.282 0-1.285.081-2.57.081s-1.301.303-2.532-.065c-.088-.79-.389-1.404-.586-2.156-.202-.767-.231-1.59-.539-2.307a16.438 16.438 0 0 0-1.104-2.099c-.412-.67-.98-1.241-1.482-1.844-.503-.602-.985-1.24-1.57-1.764-.585-.525-1.246-.966-1.903-1.4-.653-.433-1.386-.727-2.099-1.064-.708-.332-1.398-.716-2.156-.945-.745-.224-1.507-.468-2.294-.583a16.404 16.404 0 0 0-2.364-.187c-.799 0-1.575.229-2.342.341-.786.115-1.589.143-2.335.366-.758.227-1.467.598-2.175.93-.714.336-1.441.662-2.093 1.095-.657.435-1.267.948-1.852 1.471-.585.523-1.111 1.117-1.615 1.72-.504.604-.834 1.321-1.246 1.993-.41.667-.855 1.308-1.165 2.034-.306.717-.482 1.476-.684 2.243-.199.752-.501 1.37-.589 2.16-1.162.364-1.179.022-2.395.022s-1.218-.05-2.435-.05c-1.218 0-1.216.004-2.434.004-1.217 0-1.216.105-2.432.105s-1.216-.027-2.432-.027-1.216.212-2.434.212c-1.217 0-1.217-.143-2.435-.143-1.217 0-1.217.07-2.435.07s-1.216-.217-2.434-.217c-1.217 0-1.216.179-2.433.179-1.218 0-1.218.112-2.434.112-1.216 0-1.217-.058-2.436-.058-1.22 0-1.217-.181-2.433-.181H68c-1.215 0-1.213.017-2.428.017-1.215 0-1.215.143-2.428.143-1.213 0-1.214.073-2.429.073-1.215 0-1.218-.007-2.434-.007-1.216 0-1.217-.262-2.436-.262-1.22 0-1.216-.007-2.432-.007s-1.216.021-2.431.021-1.216-.036-2.432-.036-1.218.137-2.437.137c-1.219 0-1.217.013-2.436.013-1.22 0-1.218.137-2.434.137-1.216 0-1.218-.274-2.435-.274-1.218 0-1.22.12-2.438.12-1.22 0-1.218.137-2.435.137-1.218 0-1.22-.177-2.438-.177-1.22 0-1.22-.024-2.437-.024-1.217 0-1.219.12-2.44.12-1.22 0-1.215-.17-2.431-.17s-1.216.006-2.432.006c-1.217 0-1.22-.017-2.441-.017-1.22 0-1.218.018-2.437.018-1.219 0-1.22.206-2.44.206-1.218 0-1.221-.1-2.442-.1-1.22 0-1.219.172-2.439.172s-1.222-.245-2.445-.245c-1.223 0-1.225-.034-2.448-.034-1.223 0-1.225.213-2.448.213-.994 0-1.82.72-1.82 1.714s.826 1.705 1.82 1.705c1.217 0 1.217-.028 2.433-.028 1.217 0 1.218.172 2.436.172 1.217 0 1.216-.04 2.433-.04 1.218 0 1.216.005 2.432.005s1.216-.065 2.433-.065c1.216 0 1.216-.085 2.433-.085 1.218 0 1.218.184 2.435.184 1.218 0 1.218.091 2.435.091 1.218 0 1.216-.255 2.434-.255 1.218 0 1.216.008 2.434.008 1.217 0 1.217.17 2.433.17 1.216 0 1.218-.06 2.437-.06 1.219 0 1.216-.106 2.432-.106s1.215.106 2.43.106c1.214 0 1.213.117 2.427.117 1.215 0 1.215.032 2.428.032 1.213 0 1.215-.262 2.43-.262 1.214 0 1.217.026 2.433.026 1.216 0 1.218.069 2.437.069 1.219 0 1.216.062 2.432.062s1.216-.067 2.43-.067c1.215 0 1.217-.082 2.433-.082 1.216 0 1.217.048 2.436.048 1.22 0 1.218-.046 2.437-.046 1.219 0 1.217.11 2.433.11 1.216 0 1.218-.156 2.436-.156 1.217 0 1.219.16 2.438.16s1.217.053 2.435.053c1.217 0 1.219-.048 2.438-.048 1.218 0 1.218-.034 2.436-.034s1.219.004 2.44.004c1.22 0 1.216-.117 2.432-.117s1.216.196 2.432.196 1.22-.11 2.44-.11c1.221 0 1.218.008 2.437.008 1.22 0 1.22.144 2.44.144 1.219 0 1.221-.258 2.442-.258 1.22 0 1.219.248 2.44.248 1.22 0 1.221-.038 2.445-.038 1.223 0 1.224-.021 2.448-.021 1.223 0 1.318-.527 2.486-.164.088.79.209 1.682.408 2.434.202.767.552 1.468.859 2.186.311.726.659 1.414 1.068 2.08.412.671.791 1.357 1.294 1.959.502.602.955 1.272 1.541 1.796.587.525 1.361.808 2.016 1.244.653.432 1.275.912 1.99 1.247.706.333 1.464.533 2.222.76.745.225 1.491.447 2.278.563.768.112 1.546.076 2.344.076.798 0 1.602.209 2.369.096.787-.115 1.498-.54 2.243-.763.758-.228 1.518-.415 2.225-.746.715-.336 1.414-.695 2.066-1.127.657-.435 1.224-.98 1.809-1.502.585-.523 1.173-1.042 1.675-1.645a16.53 16.53 0 0 0 1.378-1.908c.409-.667.808-1.347 1.119-2.073.307-.717.414-1.504.616-2.27.199-.752.477-1.472.566-2.262 1.225-.366 1.272.124 2.552.124 1.279 0 1.281-.236 2.56-.236 1.28 0 1.283.204 2.564.204 1.28 0 1.279-.235 2.56-.235 1.281 0 1.284.172 2.566.172 1.283 0 1.285-.09 2.571-.09 1.285 0 1.285-.081 2.57-.081.994 0 1.705-.682 1.705-1.676 0-.994-.711-1.694-1.705-1.694l-.003.002Zm-34.01 14.362c-.839 0-1.67-.132-2.463-.288-.817-.163-1.569-.52-2.321-.833-.764-.317-1.497-.677-2.176-1.133-.684-.458-1.253-1.041-1.834-1.622-.58-.58-1.07-1.211-1.529-1.897-.455-.678-.907-1.348-1.224-2.113-.313-.752-.482-1.542-.644-2.357-.157-.792-.493-1.586-.493-2.424 0-.839.321-1.636.48-2.428a12.22 12.22 0 0 1 .696-2.34c.317-.763.593-1.542 1.049-2.222.458-.684 1.054-1.256 1.635-1.837.581-.58 1.176-1.14 1.86-1.6.679-.456 1.362-.941 2.125-1.258.753-.313 1.578-.45 2.394-.612.792-.157 1.606-.169 2.445-.169a12.4 12.4 0 0 1 2.429.254c.817.163 1.65.239 2.401.552.763.318 1.416.838 2.096 1.293.685.458 1.372.908 1.953 1.488.58.58 1.043 1.258 1.502 1.942.456.68.869 1.38 1.186 2.144.313.752.585 1.524.747 2.34.157.793.39 1.611.39 2.45 0 .838-.183 1.665-.34 2.459-.163.817-.331 1.644-.644 2.396-.318.763-.931 1.37-1.386 2.05-.458.684-.947 1.322-1.527 1.902-.581.581-1.231 1.05-1.915 1.509-.681.455-1.378.835-2.142 1.154-.752.312-1.491.648-2.308.81-.792.158-1.604.39-2.442.39Zm34.01 21.997c-1.194 0-1.194.01-2.39.01-1.196 0-1.193-.044-2.388-.044-1.194 0-1.193-.13-2.386-.13s-1.193.11-2.386.11-1.194.154-2.387.154-1.196-.183-2.392-.183-1.198.152-2.395.152-1.196.03-2.39.03c-1.195 0-1.195-.146-2.389-.146-1.195 0-1.196.01-2.391.01-1.194 0-1.197-.095-2.394-.095-1.198 0-1.198.01-2.394.01-1.196 0-1.196.206-2.392.206s-1.197-.273-2.393-.273c-1.196 0-1.199.04-2.396.04-1.197 0-1.197.089-2.393.089-1.196 0-1.199.054-2.397.054-1.197 0-1.197-.14-2.394-.14h-2.398c-1.199 0-1.196-.045-2.39-.045-1.195 0-1.196.263-2.391.263-1.194 0-1.199-.215-2.399-.215s-1.197.006-2.395.006c-1.197 0-1.198.005-2.397.005-1.199 0-1.2.214-2.4.214s-1.2-.078-2.398-.078c-1.2 0-1.202-.043-2.402-.043-1.2 0-1.203.058-2.407.058-1.203 0-1.227.203-2.374-.16-.088-.79-.296-1.455-.494-2.207a15.78 15.78 0 0 0-.784-2.216 15.967 15.967 0 0 0-1.07-2.091c-.411-.672-.802-1.362-1.305-1.964-.503-.602-1.145-1.073-1.732-1.597-.586-.525-1.157-1.06-1.812-1.494-.653-.433-1.373-.74-2.088-1.076-.706-.333-1.392-.728-2.15-.956-.745-.224-1.507-.458-2.294-.573-.768-.112-1.565.003-2.363.003s-1.586-.053-2.353.06c-.787.114-1.579.214-2.325.439-.758.227-1.459.618-2.166.95-.715.336-1.37.764-2.023 1.196-.657.435-1.254.932-1.837 1.455-.584.523-1.176 1.037-1.68 1.64-.505.604-1.07 1.172-1.481 1.843-.41.667-.572 1.467-.884 2.193a15.811 15.811 0 0 0-.745 2.214c-.198.752-.472 1.504-.56 2.295-1.15.363-1.21.057-2.418.057-1.207 0-1.209-.064-2.416-.064-1.208 0-1.208-.1-2.417-.1-1.209 0-1.207.022-2.413.022-1.206 0-1.207-.075-2.416-.075-1.21 0-1.21.223-2.418.223-1.21 0-1.208-.072-2.416-.072-1.21 0-1.21.084-2.42.084s-1.209-.018-2.418-.018c-1.208 0-1.21-.181-2.419-.181s-1.206.006-2.412.006-1.206.242-2.413.242c-1.208 0-1.21-.24-2.421-.24-1.21 0-1.209.077-2.416.077-1.208 0-1.21.166-2.421.166-1.21 0-1.212-.178-2.422-.178-1.21 0-1.21.03-2.42.03-1.208 0-1.211.041-2.424.041-1.214 0-1.215-.174-2.43-.174-1.214 0-1.214.198-2.429.198-.994 0-1.869.747-1.869 1.74 0 .995.875 1.703 1.869 1.703 1.206 0 1.206.176 2.414.176 1.207 0 1.208-.076 2.416-.076 1.207 0 1.207.019 2.416.019 1.21 0 1.208-.074 2.414-.074 1.206 0 1.207.195 2.416.195 1.209 0 1.209-.136 2.418-.136s1.207-.11 2.416-.11c1.21 0 1.21.01 2.42.01s1.208.187 2.417.187c1.21 0 1.21.02 2.42.02 1.208 0 1.205-.202 2.412-.202 1.205 0 1.205.177 2.413.177 1.207 0 1.21.056 2.42.056s1.21-.069 2.417-.069c1.207 0 1.21-.226 2.42-.226 1.211 0 1.212.303 2.423.303 1.21 0 1.21-.127 2.419-.127s1.212-.174 2.425-.174c1.213 0 1.215.076 2.43.076 1.214 0 1.259-.254 2.417.11.088.792.25 1.526.448 2.28.202.766.448 1.514.755 2.231.311.726.621 1.458 1.03 2.125.413.671.86 1.336 1.362 1.938a16.329 16.329 0 0 0 1.663 1.685c.586.525 1.307.873 1.964 1.308.652.432 1.334.797 2.049 1.133.707.332 1.368.798 2.126 1.025.745.225 1.547.26 2.333.375.768.112 1.545.255 2.343.255s1.576-.131 2.344-.244c.787-.115 1.583-.171 2.329-.396.758-.227 1.408-.717 2.115-1.05.715-.336 1.465-.586 2.118-1.019.657-.435 1.236-.965 1.821-1.488s1.267-.966 1.771-1.57c.505-.603.849-1.331 1.261-2.002.41-.667.676-1.403.986-2.13.306-.717.664-1.415.865-2.18.2-.753.323-1.646.411-2.437 1.138-.362 1.235-.02 2.43-.02 1.194 0 1.193.067 2.387.067 1.195 0 1.193.11 2.386.11s1.193-.072 2.386-.072 1.195.044 2.388.044c1.193 0 1.196.13 2.392.13s1.197-.051 2.394-.051c1.198 0 1.196-.233 2.391-.233 1.194 0 1.194.26 2.389.26 1.194 0 1.196-.08 2.39-.08 1.195 0 1.198-.022 2.395-.022s1.197.09 2.393.09c1.196 0 1.196-.032 2.392-.032s1.197.05 2.393.05c1.196 0 1.199-.248 2.397-.248 1.197 0 1.197.22 2.393.22 1.196 0 1.199-.073 2.396-.073 1.197 0 1.197.045 2.395.045 1.197 0 1.199-.141 2.397-.141 1.199 0 1.196.174 2.391.174 1.194 0 1.196.036 2.39.036 1.195 0 1.199-.082 2.399-.082 1.201 0 1.198-.04 2.395-.04s1.199-.106 2.398-.106c1.198 0 1.2.101 2.4.101s1.199-.124 2.398-.124 1.201.147 2.402.147c1.2 0 1.203-.161 2.406-.161s1.203.03 2.406.03c.994 0 1.85-.7 1.85-1.695 0-.996-.856-1.76-1.85-1.76l-.003.002Zm-85.49 14.363a12.63 12.63 0 0 1-2.46-.232c-.818-.163-1.599-.448-2.35-.761-.763-.318-1.419-.817-2.097-1.273-.685-.458-1.38-.89-1.961-1.471-.581-.58-1.232-1.13-1.69-1.814-.456-.68-.69-1.5-1.01-2.263-.312-.752-.7-1.501-.862-2.318-.157-.792-.274-1.633-.274-2.472 0-.838.23-1.657.386-2.449a12.43 12.43 0 0 1 .708-2.358c.318-.764.788-1.438 1.243-2.118.458-.684.965-1.314 1.546-1.894.58-.58 1.09-1.266 1.775-1.724.68-.456 1.532-.607 2.296-.924.752-.313 1.504-.585 2.32-.748.792-.157 1.592-.325 2.43-.325.839 0 1.666.027 2.458.186.817.163 1.558.536 2.31.847.764.317 1.473.697 2.153 1.154.684.458 1.274 1.002 1.854 1.583.58.58 1.306 1.047 1.765 1.733.455.678.659 1.507.976 2.272a12.313 12.313 0 0 1 .958 4.767c0 .838.13 1.682-.028 2.474-.162.817-.482 1.598-.795 2.35-.317.764-.75 1.474-1.204 2.154-.459.684-.943 1.362-1.523 1.943-.581.58-1.319.975-2.003 1.433-.679.456-1.334.963-2.098 1.281-.752.313-1.542.576-2.359.738a12.7 12.7 0 0 1-2.46.229h-.004Z"/>
</svg>
