<svg xmlns="http://www.w3.org/2000/svg" width="216" height="260" fill="none" viewBox="0 0 216 260">
  <path stroke="#fff" stroke-linecap="round" stroke-linejoin="round" stroke-width="2.666" d="M61.908 174.252c-2.934 0-5.507-.922-8.031-2.326-2.502-1.391-4.916-3.148-6.736-5.38-2.676 1.338-5.842 2.841-8.83 2.841-2.615 0-5.09-.922-7.38-1.854-2.369-.965-4.762-2.083-6.56-3.839-1.803-1.762-2.897-4.158-3.896-6.505-.965-2.27-1.156-4.701-1.156-7.32 0-.999-.38-1.883-.217-2.885-3.284-.263-5.813-2.235-8.38-3.886-2.658-1.708-4.731-3.814-6.223-6.612C3.073 133.811 2 130.942 2 127.634c0-3.072.124-6.226 1.33-8.891 1.252-2.767 3.862-4.579 6.157-6.46 2.281-1.866 4.281-4.102 7.336-4.644-.384-1.524-.139-2.055-.139-3.619 0-2.624.334-5.165 1.313-7.45 1.008-2.352 2.91-4.078 4.723-5.854 1.806-1.771 3.78-3.134 6.152-4.113 2.305-.95 4.646-1.796 7.268-1.796 2.59 0 4.596-.112 6.98.9.902-2.55 2.728-4.372 4.604-6.27 1.875-1.896 3.7-4.087 6.187-5.127 2.45-1.024 5.294-1.287 8-1.287 2.62 0 5.153.713 7.52 1.643 2.419.949 4.797 2.123 6.653 3.888 1.855 1.766 2.874 4.462 3.862 6.886 1.564-.403 3.007-.15 4.602-.15 3.52 0 6.773.39 9.585 2.044 2.901 1.706 4.847 4.393 6.51 7.334 1.605 2.838 2.834 5.855 2.834 9.352 0 2.255.375 4.177-.404 6.294 3.163 1.672 5.825 4.118 7.569 7.115 1.724 2.966 2.544 6.621 2.544 10.205 0 3.499-.842 7.048-2.611 9.897-1.765 2.842-5.096 4.692-8.12 6.386.525 1.769.911 4.12.911 5.95 0 3.506-.974 6.512-2.61 9.336-1.69 2.918-3.89 5.205-6.816 6.888-2.831 1.629-5.879 2.772-9.392 2.772-2.739 0-5.373.039-7.864-1.08-1.825 2.131-4.263 3.371-6.766 4.616-2.503 1.246-5.175 1.851-8.006 1.851l-.004.002ZM96.627 66c0-5.306-.103-5.306-.103-10.613 0-5.308.28-5.308.28-10.616 0-5.306-.02-5.306-.02-10.61 0-5.304-.168-5.31-.168-10.619 0-5.313-.155-5.313-.155-10.626s.225-10.51.225-10.51 5.219-.34 10.557-.34c5.337 0 5.332.159 10.666.159 5.334 0 5.336.102 10.672.102s5.338-.133 10.675-.133c5.338 0 5.338.35 10.676.35 5.337 0 5.337.028 10.675.028 5.338 0 5.339-.26 10.679-.26 5.339 0 5.336.237 10.674.237 5.337 0 5.341-.184 10.682-.184s5.345-.212 10.69-.212 10.83-.007 10.83-.007-.027 5.442-.027 10.745c0 5.304.114 5.304.114 10.61 0 5.302-.462 5.302-.462 10.604 0 5.303.029 5.305.029 10.61 0 5.304-.054 5.304-.054 10.607 0 5.304.033 5.304.033 10.608s.131 5.304.131 10.608c0 5.306.256 5.306.256 10.612s-.27 5.304-.27 10.608c0 5.306-.062 5.306-.062 10.612s.33 5.306.33 10.614c0 5.308-.344 5.306-.344 10.612v10.612c0 5.306.361 5.306.361 10.613 0 5.303-.455 5.303-.455 10.603 0 5.301.298 5.304.298 10.608 0 5.306.238 5.306.238 10.614 0 5.306-.336 5.306-.336 10.614 0 5.306.044 5.306.044 10.613 0 5.308.093 5.308.093 10.616 0 5.306-.167 5.306-.167 10.61 0 5.309.304 5.309.304 10.619 0 5.313-.29 5.313-.29 10.626s.045 5.313.045 10.626"/>
  <path stroke="#fff" stroke-linecap="round" stroke-linejoin="round" stroke-width="2.666" d="M96.787 89.796c.03-.707.047-1.539.047-2.569 0-5.305-.555-5.305-.555-10.613s.346-5.306.346-10.614m-.301 190.972c0-5.302.202-5.302.202-10.605 0-5.302-.063-5.304-.063-10.61 0-5.306.258-5.302.258-10.604 0-5.304.066-5.304.066-10.61 0-5.304-.115-5.304-.115-10.607 0-5.304-.267-5.304-.267-10.608s.195-5.304.195-10.608c0-5.306-.186-5.306-.186-10.612 0-4.061.13-5.013.191-7.617m31.404 92.481c0-5.712.116-5.712.116-11.425 0-5.713-.058-5.709-.058-11.418 0-5.715-.056-5.715-.056-11.429 0-5.715.094-5.718.094-11.436 0-5.719-.047-11.451-.047-11.451s4.553.032 9.087.032c4.533 0 4.537-.03 9.074-.03s9.079.009 9.079.009-.072 5.716-.072 11.429c0 5.709.058 5.709.058 11.418s.061 5.714.061 11.429c0 5.718-.045 5.718-.045 11.436 0 3.812.005 7.624.014 11.436"/>
  <path stroke="#fff" stroke-linecap="round" stroke-linejoin="round" stroke-width="2.666" d="M155.341 256.972c0-5.713-.095-5.713-.095-11.425 0-5.709.068-5.709.068-11.418s-.061-5.715-.061-11.429c0-3.812-.002-7.624-.007-11.437 0-5.718.039-11.443.039-11.443s4.543.025 9.078.025c4.535 0 4.537.004 9.074.004s9.027.016 9.027.016.064 5.675.064 11.388c0 5.709-.062 5.709-.062 11.418s.114 5.714.114 11.429c0 5.714-.116 5.718-.116 11.436s.058 5.718.058 11.436"/>
  <path stroke="#fff" stroke-linecap="round" stroke-linejoin="round" stroke-width="2.583" d="M129.903 47.72s-4.235-.033-8.474-.033c-4.24 0-8.483.038-8.483.038s-.019-5.297-.019-10.59c0-5.297.061-5.297.061-10.594s-.025-10.585-.025-10.585 4.228.018 8.466.018c4.238 0 8.499-.043 8.499-.043s-.033 5.31-.033 10.603c0 5.296-.975 5.388.035 10.59 1.062 5.473-.027 10.595-.027 10.595Zm33.898.026s-4.269-.01-8.508-.01c-4.24 0-8.492-.004-8.492-.004s.011-5.302.011-10.596c0-3.531.002-7.062.007-10.594 0-5.297-.007-10.595-.007-10.595s4.241.007 8.479.007c4.238 0 8.45.016 8.45.016s.032 5.272.032 10.565c0 5.297.018 10.59.018 10.59l.008 10.623.002-.002Zm33.807-.045s-4.212-.007-8.452-.007c-4.239 0-8.504.049-8.504.049l.002-10.607c0-5.293.061-5.297.061-10.594 0-5.296-.047-10.6-.047-10.6s4.249-.031 8.488-.031c4.24 0 8.49.029 8.49.029s.006 5.302.006 10.595c0 5.294-1.017 5.393-.015 10.594 1.055 5.465-.029 10.572-.029 10.572Zm-67.713 45.942s-4.227.036-8.466.036c-4.24 0-8.47-.035-8.47-.035s-.014-5.286-.014-10.579c0-5.297.018-5.297.018-10.594s-.009-10.592-.009-10.592 4.235.032 8.475.032c4.239 0 8.456-.016 8.456-.016s.055 5.276.055 10.569c0 5.297-.01 10.59-.01 10.59l-.035 10.589Zm33.857-.008s-4.22-.018-8.459-.018c-4.24 0-8.458.018-8.458.018s.009-5.275.009-10.569c0-5.297-.065-5.297-.065-10.593 0-5.297.049-10.582.049-10.582s4.223.004 8.463.004c4.239 0 8.5-.033 8.5-.033s-.032 5.31-.032 10.603c0 5.297-.988 5.393.016 10.593 1.057 5.467-.027 10.579-.027 10.579l.004-.002ZM181.108 61.9s4.245.027 8.485.027c4.239 0 8.495-.036 8.495-.036s-.033 5.308-.033 10.601c0 3.532.002 7.063.004 10.594 0 5.297-.004 10.582-.004 10.582s-4.223-.013-8.462-.013c-4.24 0-8.452.004-8.452.004V83.093c0-5.297 1.013-5.4 0-10.599-1.066-5.477-.036-10.592-.036-10.592l.003-.002Zm-51.214 77.671s-4.227.007-8.467.007c-4.239 0-8.468-.006-8.468-.006v-10.577c0-5.297.025-5.297.025-10.594s-.056-10.61-.056-10.61 4.26.009 8.499.009c4.24 0 8.461.02 8.461.02s.04 5.278.04 10.572c0 5.297-.038 10.597-.038 10.597v10.582h.004Zm33.901.028-8.502-.03-8.487.018s-.023-5.301-.023-10.594c0-3.532.002-7.063.007-10.594 0-5.297.049-10.574.049-10.574s4.214-.002 8.454-.002c4.239 0 8.475-.014 8.475-.014s-.011 5.291-.011 10.584c0 5.297.004 10.596.004 10.596l.034 10.612v-.002Zm33.837-.023s-4.234.036-8.474.036c-4.239 0-8.475-.036-8.475-.036s.032-5.29.032-10.583c0-5.294-.059-5.297-.059-10.594s.045-10.576.045-10.576 4.218-.049 8.457-.049c4.24 0 8.47.038 8.47.038l.02 10.58s-.99 5.387.02 10.588c1.062 5.473-.036 10.596-.036 10.596Zm-67.701 45.954s-4.264-.013-8.504-.013c-4.239 0-8.479-.007-8.479-.007s-.021-5.294-.021-10.587c0-5.297.645-6.319.016-10.594-.631-4.274.002-10.595.002-10.595s4.243.009 8.482.009c4.24 0 8.504-.027 8.504-.027s-.03 5.313-.03 10.606c0 5.297-.049 7.406-.031 10.601l.061 10.607Zm33.866-.002s-4.263-.017-8.503-.017c-4.239 0-8.497.013-8.497.013s.008-5.308.008-10.601c0-5.297-.024-5.297-.024-10.594s.06-10.574.06-10.574 4.214-.052 8.453-.052c4.24 0 8.485.027 8.485.027s-.006 5.299-.006 10.592c0 5.297.02 10.59.02 10.59l.004 10.616Zm33.864.001s-4.265-.016-8.505-.016c-4.239 0-8.502.015-8.502.015s-.004-5.312-.004-10.605c0-5.297.024-5.297.024-10.594s.029-10.574.029-10.574 4.216-.05 8.453-.05c4.238 0 8.481.028 8.481.028s.022 5.296.022 10.589c0 5.297-.015 10.592-.015 10.592l.017 10.615Z"/>
  <path fill="#fff" d="M38.334 259.465c-.153 0-.388-.151-.539-.186-.903-.205-1.747-1.456-1.495-2.185 2.44-7.046 4.869-13.83 6.674-20.633 1.895-7.147 3.625-14.15 4.838-21.152 1.248-7.197 2.265-14.348 2.815-21.522.55-7.174-.004-14.395-.13-21.688-.012-.758 1.299-.873 2.236-.884.95-.052 1.863.076 1.876.833.128 7.362.126 14.666-.43 21.913-.555 7.248-2.282 14.351-3.541 21.613-1.224 7.064-2.218 14.28-4.131 21.492-1.82 6.866-4.242 13.74-6.703 20.849-.211.607-.73 1.55-1.47 1.55Zm50.006-.033c-.74 0-1.09-.97-1.301-1.576-2.34-6.762-4.357-13.391-6.223-20.034-1.888-6.724-3.6-13.416-4.884-20.378-1.233-6.692-2.74-13.492-3.307-20.73-.521-6.656-.406-13.627-.28-21.005.013-.752.664-1.623 1.591-1.623.01 0 .015.337.022.337.938.01 1.873.566 1.859 1.324-.126 7.308.047 14.181.564 20.776.563 7.168 1.58 13.956 2.805 20.584 1.273 6.896 2.217 13.746 4.09 20.409 1.848 6.578 4.848 12.852 7.167 19.551.255.729-.705 1.815-1.608 2.018-.153.034-.345.346-.496.346l.002.001Z"/>
</svg>
