<svg xmlns="http://www.w3.org/2000/svg" width="223" height="127" fill="none" viewBox="0 0 223 127">
  <path fill="#A7B05B" d="M212.642 20.503H10.686c-5.496 0-9.954-4.458-9.954-9.954C.732 5.054 5.19.597 10.686.597h201.956c5.496 0 9.954 4.458 9.954 9.954 0 5.495-4.458 9.953-9.954 9.953Zm0 53.023H10.686c-5.496 0-9.954-4.457-9.954-9.953 0-5.496 4.458-9.953 9.954-9.953h201.956c5.496 0 9.954 4.457 9.954 9.953 0 5.496-4.458 9.953-9.954 9.953Zm0 53.026H10.686c-5.496 0-9.954-4.458-9.954-9.954s4.458-9.953 9.954-9.953h201.956c5.496 0 9.954 4.457 9.954 9.953 0 5.496-4.458 9.954-9.954 9.954Z"/>
</svg>
