<svg xmlns="http://www.w3.org/2000/svg" width="149" height="184" fill="none" viewBox="0 0 149 184">
  <path fill="#F54E00" d="M125.969 183.407a9.95 9.95 0 0 1-8.438-4.66c-30.696-48.857-14.517-76.589-1.516-98.871 11.79-20.21 20.31-34.81 1.525-64.613-2.933-4.65-1.54-10.796 3.112-13.728 4.648-2.93 10.796-1.539 13.726 3.114 25.227 40.016 11.204 64.052-1.168 85.26-12.399 21.25-23.106 39.6 1.176 78.247 2.926 4.657 1.523 10.8-3.132 13.723a9.914 9.914 0 0 1-5.285 1.528Z"/>
  <path fill="#F54E00" d="M76.37 183.407a9.949 9.949 0 0 1-8.437-4.66c-30.696-48.857-14.517-76.589-1.516-98.871 11.79-20.21 20.31-34.81 1.525-64.613-2.933-4.65-1.54-10.796 3.112-13.728C75.702-1.395 81.85-.004 84.78 4.65c25.227 40.016 11.204 64.052-1.168 85.26-12.399 21.25-23.105 39.6 1.176 78.247 2.926 4.657 1.523 10.8-3.132 13.723a9.912 9.912 0 0 1-5.285 1.528Z"/>
  <path fill="#F54E00" d="M26.77 183.407a9.949 9.949 0 0 1-8.438-4.66c-30.695-48.857-14.515-76.589-1.515-98.871 11.79-20.21 20.309-34.81 1.523-64.613-2.933-4.65-1.54-10.796 3.112-13.726 4.65-2.936 10.797-1.54 13.726 3.11 25.229 40.02 11.205 64.055-1.168 85.263-12.397 21.251-23.103 39.601 1.177 78.247 2.926 4.657 1.522 10.8-3.133 13.723a9.918 9.918 0 0 1-5.286 1.528h.001Z"/>
</svg>
