<svg xmlns="http://www.w3.org/2000/svg" width="222" height="156" fill="none" viewBox="0 0 222 156">
  <path fill="#9EE9E4" d="M154.41 49.05c-22.815 0-40.089-8.16-56.14-15.74-45.018-21.263-62.986-12.097-83.79-1.482-4.9 2.497-10.892.554-13.39-4.341-2.499-4.897-.555-10.89 4.34-13.39C52.906-10.13 81.524 3.382 106.773 15.308c26.197 12.37 50.934 24.059 100.629-1.218 4.895-2.493 10.89-.542 13.382 4.36 2.493 4.899.541 10.89-4.36 13.382C191.49 44.517 171.412 49.05 154.41 49.05Zm.002 53.024c-22.815 0-40.089-8.16-56.14-15.74-45.023-21.266-62.99-12.1-83.792-1.48-4.894 2.496-10.892.555-13.39-4.342-2.499-4.897-.555-10.89 4.34-13.39 47.482-24.229 76.095-10.71 101.343 1.21 26.193 12.373 50.932 24.06 100.628-1.216 4.895-2.493 10.89-.542 13.382 4.36 2.493 4.899.541 10.89-4.36 13.382-24.933 12.684-45.011 17.215-62.011 17.216Zm-.002 53.024c-22.815 0-40.089-8.16-56.14-15.74-45.018-21.263-62.986-12.096-83.79-1.481-4.9 2.497-10.892.556-13.39-4.341-2.499-4.897-.555-10.891 4.34-13.391 47.475-24.227 76.093-10.712 101.342 1.213 26.197 12.37 50.934 24.057 100.629-1.218 4.895-2.495 10.89-.542 13.382 4.36 2.493 4.898.541 10.89-4.36 13.382-24.933 12.684-45.011 17.216-62.013 17.216Z"/>
</svg>
