<svg xmlns="http://www.w3.org/2000/svg" width="210" height="189" fill="none" viewBox="0 0 210 189">
  <path fill="#D984D9" d="M87.926 189h-.201C39.765 189 .748 149.838.748 101.705.748 42.772 43.573 0 102.579 0c31.236 0 57.922 10.94 77.179 31.636 21.656 23.275 32.171 56.726 29.612 94.191-.377 5.485-5.09 9.595-10.573 9.251-5.467-.378-9.593-5.128-9.218-10.612 2.181-31.901-6.457-60.042-24.319-79.243-15.408-16.56-37.084-25.315-62.679-25.315-23.127 0-44.05 8.155-58.918 22.964-14.882 14.821-23.076 35.714-23.076 58.831 0 37.088 30.01 67.276 66.94 67.386 23.288-1.011 50.938-12.737 50.938-62.684 0-20.946-20.396-40.022-42.79-40.022-16.287 0-29.535 13.299-29.535 29.643 0 11.978 9.709 21.723 21.644 21.723 5.477 0 9.919 4.458 9.919 9.954 0 5.497-4.442 9.955-9.919 9.955-22.872 0-41.481-18.677-41.481-41.632 0-27.325 22.146-49.552 49.371-49.552 33.363 0 62.629 28.006 62.629 59.931 0 49.918-26.234 80.792-70.173 82.585l-.202.008-.002.002Z"/>
</svg>
