<svg xmlns="http://www.w3.org/2000/svg" xmlns:xlink="http://www.w3.org/1999/xlink" width="138" zoomAndPan="magnify" viewBox="0 0 103.5 104.249996" height="139" preserveAspectRatio="xMidYMid meet" version="1.0"><defs><clipPath id="3ac284b0c3"><path d="M 0.121094 0 L 102.882812 0 L 102.882812 102.761719 L 0.121094 102.761719 Z M 0.121094 0 " clip-rule="nonzero"/></clipPath></defs><g clip-path="url(#3ac284b0c3)"><path fill="#000000" d="M 99.253906 20.953125 C 99.589844 20.730469 99.925781 20.507812 100.261719 20.285156 C 100.542969 20.101562 100.734375 19.855469 100.84375 19.539062 C 100.949219 19.226562 100.949219 18.910156 100.84375 18.597656 C 98.203125 10.917969 88.691406 2.039062 81.265625 0.324219 C 77.398438 -0.570312 75.128906 0.695312 73.90625 1.914062 C 73.699219 2.121094 73.566406 2.367188 73.507812 2.652344 C 73.5 2.695312 72.519531 7.242188 68.269531 14.304688 C 65.136719 19.511719 59.65625 26.984375 50.5 35.339844 C 49.316406 34.742188 48.589844 34.457031 48.519531 34.429688 C 48.277344 34.335938 48.023438 34.308594 47.765625 34.351562 C 47.507812 34.390625 47.277344 34.496094 47.074219 34.660156 L 38.820312 41.371094 C 38.640625 41.519531 38.503906 41.699219 38.410156 41.910156 C 38.316406 42.125 38.273438 42.347656 38.285156 42.578125 C 38.300781 42.8125 38.363281 43.027344 38.480469 43.230469 C 38.597656 43.429688 38.753906 43.59375 38.949219 43.722656 C 39.21875 43.894531 39.484375 44.066406 39.746094 44.242188 C 20.4375 59.347656 16.710938 61.761719 16.019531 62.148438 C 15.734375 62.226562 15.5 62.375 15.304688 62.597656 C 15.113281 62.820312 15 63.078125 14.964844 63.371094 C 14.925781 63.660156 14.976562 63.9375 15.105469 64.199219 C 15.238281 64.464844 15.429688 64.667969 15.6875 64.8125 C 16.503906 65.285156 17.238281 64.824219 17.828125 64.453125 C 18.53125 64.011719 19.667969 63.222656 21.207031 62.101562 C 25.496094 58.980469 32.5625 53.570312 42.230469 46 C 46.417969 49.125 50.128906 52.734375 53.363281 56.832031 C 52.671875 57.582031 52 58.3125 51.351562 59.027344 C 42.636719 68.632812 36.734375 76.4375 34.484375 79.515625 C 20.847656 66.144531 12.058594 65.855469 7.972656 66.921875 C 4.324219 67.871094 1.636719 70.601562 0.601562 74.410156 C -0.1875 77.308594 -0.0078125 80.621094 1.113281 83.992188 C 2.292969 87.527344 4.480469 90.957031 7.4375 93.90625 C 14.578125 101.03125 19.617188 102.730469 22.796875 102.730469 C 23.699219 102.738281 24.570312 102.589844 25.417969 102.28125 C 26.578125 101.851562 27.53125 101.140625 28.273438 100.152344 C 28.429688 100.070312 28.566406 99.960938 28.683594 99.824219 C 40.644531 85.921875 50.832031 74.96875 59.378906 66.359375 C 59.402344 66.417969 59.417969 66.453125 59.421875 66.457031 C 59.5 66.648438 59.613281 66.8125 59.761719 66.953125 C 59.910156 67.09375 60.082031 67.199219 60.273438 67.269531 C 60.46875 67.339844 60.667969 67.367188 60.871094 67.351562 C 61.074219 67.335938 61.269531 67.28125 61.449219 67.183594 C 62.015625 68.804688 62.863281 71.195312 63.761719 73.59375 C 67.160156 82.648438 67.949219 82.984375 68.644531 83.28125 C 68.878906 83.382812 69.121094 83.433594 69.375 83.429688 C 69.644531 83.429688 69.902344 83.378906 70.148438 83.277344 C 70.9375 82.953125 71.929688 82.121094 73.820312 78.277344 C 74.453125 76.996094 74.992188 75.765625 75.300781 75.039062 C 76.320312 74.746094 78.339844 74.148438 80.355469 73.492188 C 82.046875 72.941406 83.410156 72.457031 84.410156 72.050781 C 86.09375 71.363281 86.984375 70.84375 87.175781 69.898438 C 87.234375 69.605469 87.210938 69.316406 87.109375 69.035156 C 87.003906 68.753906 86.832031 68.519531 86.597656 68.332031 C 85.675781 67.597656 75.988281 62.261719 70.953125 59.5 L 71.285156 59.230469 C 71.542969 59.019531 71.710938 58.753906 71.785156 58.429688 C 71.863281 58.105469 71.828125 57.792969 71.691406 57.492188 C 71.363281 56.785156 71.023438 56.09375 70.671875 55.425781 C 76.390625 50.125 81.058594 46.199219 84.742188 43.324219 C 93.789062 36.257812 99.265625 33.660156 100.882812 33.28125 C 101.058594 33.242188 101.21875 33.175781 101.371094 33.078125 C 101.9375 32.710938 102.65625 31.980469 102.839844 30.578125 C 103.082031 28.707031 102.261719 26.421875 101.53125 24.832031 C 100.898438 23.464844 100.140625 22.171875 99.253906 20.953125 Z M 70.878906 15.625 C 74.570312 9.453125 75.886719 5.128906 76.25 3.722656 C 77.265625 2.914062 78.730469 2.726562 80.609375 3.160156 C 83.65625 3.863281 87.394531 6.125 90.855469 9.359375 C 93.972656 12.269531 96.40625 15.542969 97.679688 18.5 C 97.3125 18.742188 96.953125 18.988281 96.589844 19.230469 C 96.414062 19.296875 96.253906 19.394531 96.113281 19.519531 C 96.074219 19.554688 96.042969 19.585938 96.011719 19.621094 C 83.738281 27.957031 72.894531 37.339844 64.070312 45.890625 C 61.980469 43.546875 59.683594 41.425781 57.175781 39.53125 C 55.894531 38.5625 54.5625 37.660156 53.1875 36.828125 C 62.25 28.433594 67.71875 20.914062 70.878906 15.625 Z M 42.195312 42.382812 L 48.226562 37.476562 C 51.1875 38.851562 62.125 44.644531 68.554688 57.695312 L 67.449219 58.59375 L 67.441406 58.601562 L 61.628906 63.324219 C 61.492188 63.371094 61.367188 63.441406 61.25 63.527344 C 59.234375 59.628906 53.535156 50.21875 42.195312 42.382812 Z M 29.828125 94.046875 C 29.480469 89.101562 26.132812 82.949219 18.914062 79.085938 C 14.304688 76.621094 11.316406 77.890625 10.15625 79.726562 C 9.074219 81.4375 9.257812 83.820312 10.675781 86.433594 C 12.121094 89.101562 14.8125 91.925781 18.460938 94.589844 C 18.730469 94.789062 19.035156 94.882812 19.375 94.871094 C 19.714844 94.859375 20.011719 94.746094 20.269531 94.527344 L 25.710938 89.898438 C 26.648438 91.882812 27.03125 93.824219 26.921875 95.457031 C 26.84375 96.664062 26.40625 98.800781 24.390625 99.554688 C 21.132812 100.777344 15.566406 97.898438 9.5 91.847656 C 4.425781 86.785156 2.039062 80.242188 3.417969 75.175781 C 4.183594 72.359375 6.0625 70.425781 8.710938 69.738281 C 11.601562 68.984375 19.824219 68.746094 33.625 82.777344 C 33.777344 82.933594 33.953125 83.046875 34.160156 83.121094 C 34.363281 83.199219 34.574219 83.226562 34.789062 83.207031 C 35.007812 83.191406 35.210938 83.125 35.398438 83.015625 C 35.585938 82.910156 35.742188 82.765625 35.867188 82.585938 C 35.929688 82.496094 42.386719 73.246094 53.515625 60.980469 C 54.039062 60.402344 54.582031 59.8125 55.140625 59.207031 C 56.351562 60.914062 57.285156 62.429688 57.964844 63.625 C 49.949219 71.671875 40.617188 81.65625 29.828125 94.046875 Z M 24.203125 87.359375 L 19.265625 91.554688 C 12.628906 86.410156 11.890625 82.441406 12.625 81.277344 C 12.871094 80.886719 13.410156 80.628906 14.203125 80.628906 C 15.042969 80.628906 16.171875 80.921875 17.535156 81.648438 C 20.199219 83.039062 22.421875 84.941406 24.203125 87.359375 Z M 82.941406 69.503906 C 80.796875 70.335938 77.09375 71.511719 73.824219 72.4375 C 73.367188 72.566406 73.046875 72.851562 72.871094 73.289062 C 71.777344 75.984375 70.417969 78.671875 69.554688 79.929688 C 68.484375 77.863281 66.351562 72.519531 63.867188 65.257812 L 68.511719 61.484375 C 73.25 64.078125 79.769531 67.679688 82.941406 69.503906 Z M 99.945312 30.203125 C 99.933594 30.324219 99.902344 30.4375 99.851562 30.546875 C 97.84375 31.164062 88.808594 34.71875 69.191406 52.800781 C 68.203125 51.175781 67.121094 49.621094 65.945312 48.128906 C 74.5 39.828125 84.988281 30.722656 96.839844 22.585938 C 98.675781 25.054688 100.15625 28.574219 99.945312 30.203125 Z M 99.945312 30.203125 " fill-opacity="1" fill-rule="nonzero"/></g></svg>